<svg width="35" height="27" viewBox="0 0 35 27" fill="none" xmlns="http://www.w3.org/2000/svg">
<path opacity="0.5" d="M34.05 12.4734C30.8247 5.03367 24.4396 0 17.1285 0C9.81733 0 3.43043 5.03719 0.206937 12.4741C0.0708854 12.7923 0 13.1438 0 13.5004C0 13.8569 0.0708854 14.2084 0.206937 14.5266C3.43221 21.9663 9.81733 27 17.1285 27C24.4396 27 30.8265 21.9628 34.05 14.5259C34.1861 14.2077 34.2569 13.8562 34.2569 13.4996C34.2569 13.1431 34.1861 12.7916 34.05 12.4734ZM17.1285 23.625C15.4346 23.625 13.7788 23.0312 12.3704 21.9186C10.962 20.8061 9.86434 19.2248 9.21613 17.3747C8.56792 15.5246 8.39832 13.4888 8.72878 11.5247C9.05923 9.56065 9.8749 7.75655 11.0726 6.34054C12.2704 4.92454 13.7964 3.96022 15.4577 3.56955C17.119 3.17887 18.841 3.37938 20.4059 4.14572C21.9708 4.91206 23.3083 6.2098 24.2494 7.87485C25.1904 9.5399 25.6927 11.4975 25.6927 13.5C25.6933 14.8298 25.4721 16.1467 25.0419 17.3754C24.6117 18.6041 23.9809 19.7206 23.1855 20.6609C22.3902 21.6012 21.4458 22.347 20.4065 22.8556C19.3672 23.3642 18.2533 23.6256 17.1285 23.625ZM17.1285 6.75C16.6189 6.75842 16.1125 6.84806 15.6232 7.01648C16.0265 7.66454 16.2201 8.46203 16.1688 9.26434C16.1174 10.0666 15.8246 10.8206 15.3434 11.3896C14.8621 11.9585 14.2244 12.3047 13.5457 12.3654C12.8671 12.4261 12.1925 12.1973 11.6444 11.7204C11.3322 13.0799 11.3886 14.521 11.8055 15.8407C12.2224 17.1604 12.9788 18.2923 13.9684 19.0772C14.9579 19.862 16.1307 20.2602 17.3217 20.2157C18.5127 20.1712 19.6619 19.6863 20.6076 18.8292C21.5533 17.9721 22.2478 16.786 22.5934 15.4378C22.939 14.0896 22.9183 12.6472 22.5342 11.3137C22.1501 9.98013 21.422 8.82256 20.4522 8.00389C19.4825 7.18522 18.3201 6.74668 17.1285 6.75Z" fill="black"/>
</svg>
